<?xml version="1.0" standalone="no"?> <!DOCTYPE svg PUBLIC "-//W3C//DTD SVG 1.0//EN" "http://www.w3.org/TR/2001/REC-SVG-20010904/DTD/svg10.dtd" > <svg xmlns="http://www.w3.org/2000/svg" width="100%" height="100%">
<defs >
<font id="bellmsfeblackitalic" horiz-adv-x="856" ><font-face
    font-family="Bell MSFE Black Italic"
    units-per-em="2048"
    panose-1="2 0 0 0 0 0 0 0 0 0"
    ascent="1536"
    descent="-512"
    alphabetic="0" />
<missing-glyph horiz-adv-x="526" />
<glyph unicode=" " glyph-name="space" horiz-adv-x="526" />
<glyph unicode="!" glyph-name="exclam" horiz-adv-x="559" d="M358 1503H692L416 545H199L358 1503ZM102 322H416L340 0H27L102 322Z" />
<glyph unicode="&quot;" glyph-name="quotedbl" horiz-adv-x="835" d="M711 1434H956L829 879H584L711 1434ZM340 1434H586L459 879H213L340 1434Z" />
<glyph unicode="#" glyph-name="numbersign" horiz-adv-x="1105" d="M1026 1030H1184L1130 836H954L868 598H1024L971 403H795L645 0H440L590 403H403L254 0H49L199 403H25L78 598H272L358 836H184L238 1030H430L580 1434H784L635 1030H821L971 1434H1176L1026
1030ZM664 598L750 836H563L477 598H664Z" />
<glyph unicode="$" glyph-name="dollar" horiz-adv-x="1167" d="M791 1690H928L885 1505Q1053 1468 1188 1337L1032 1192Q933 1277 840 1311L745 901Q1085 767 1085 496Q1085 300 943 173T547 43L477 -256H336L408 49Q146 74 4 225L182 395Q297 275 453 240L559
700Q514 721 483 738T409 782T339 838T285 904T246 989T233 1090Q233 1288 366 1407T700 1526Q735 1526 752 1524L791 1690ZM815 453Q815 513 781 556T684 637L590 231Q682 243 748 303T815 453ZM485 1143Q485 1081 518 1038T621 956L709 1337Q613 1335 549 1284T485
1143Z" />
<glyph unicode="%" glyph-name="percent" horiz-adv-x="1943" d="M934 1167Q934 1072 902 977T812 803T666 676T477 627Q332 627 242 709T152 948Q152 1043 184 1139T274 1313T419 1440T608 1489Q754 1489 844 1406T934 1167ZM1776 1475L1061 709L498 0H219L936
766L1499 1475H1776ZM1843 526Q1843 431 1811 336T1722 162T1578 35T1389 -14Q1243 -14 1153 68T1063 307Q1063 383 1083 460T1142 606T1236 730T1363 816T1518 848Q1663 848 1753 765T1843 526ZM711 1087T711 1159T680 1272T594 1313Q544 1313 501 1277T432 1185T390
1069T375 956Q375 884 406 844T492 803Q559 803 611 865T687 1007ZM1622 518Q1622 590 1591 631T1505 672Q1438 672 1386 610T1310 467T1286 315T1317 203T1403 162Q1453 162 1496 198T1565 290T1607 406T1622 518Z" />
<glyph unicode="&amp;" glyph-name="ampersand" horiz-adv-x="1458" d="M1194 807L1450 717Q1328 480 1157 317Q1205 260 1346 256L1278 -37H1219Q1104 -37 1038 -11T889 92Q773 18 668 -13T426 -45Q242 -45 127 48T12 322Q12 417 38 499T105 640T208 756T330
849T469 928Q436 1001 436 1110Q436 1205 475 1285T580 1419T731 1502T909 1532Q970 1532 1025 1518T1127 1476T1201 1399T1229 1286Q1229 1217 1204 1156T1142 1049T1047 961T939 891T821 834Q910 654 997 508Q1104 626 1194 807ZM975 1249Q975 1296 946 1323T870
1350Q800 1350 754 1302T707 1182Q707 1129 750 1014Q789 1032 823 1053T894 1104T953 1171T975 1249ZM741 283Q680 373 622 496T539 717Q448 675 386 594T324 418T375 270T518 215Q632 215 741 283Z" />
<glyph unicode="&apos;" glyph-name="quotesingle" horiz-adv-x="464" d="M340 1434H586L459 879H213L340 1434Z" />
<glyph unicode="(" glyph-name="parenleft" horiz-adv-x="737" d="M645 1532H956L827 1397Q618 1164 500 877T381 289Q381 121 419 -21T545 -305H238Q193 -249 161 -165T114 5T94 154T88 264Q88 455 128 633T245 969T419 1263T645 1532Z" />
<glyph unicode=")" glyph-name="parenright" horiz-adv-x="755" d="M713 975Q713 763 649 541T473 121Q415 17 315 -112T133 -305H-174Q98 -57 260 273T422 954Q422 1183 330 1397Q325 1408 301 1457T266 1532H578Q713 1256 713 975Z" />
<glyph unicode="*" glyph-name="asterisk" horiz-adv-x="1138" d="M971 1346L1049 1112L647 1067L952 788L758 637L584 1012L410 637L207 772L506 1065L109 1100L176 1329L532 1147L446 1540H696L618 1153L971 1346Z" />
<glyph unicode="+" glyph-name="plus" horiz-adv-x="1228" d="M1130 641V395H737V0H492V395H98V641H492V1036H737V641H1130Z" />
<glyph unicode="," glyph-name="comma" horiz-adv-x="419" d="M14 313H332L254 -31L10 -367H-141L82 0H-57L14 313Z" />
<glyph unicode="-" glyph-name="hyphen" horiz-adv-x="663" d="M106 664H639L578 397H45L106 664Z" />
<glyph unicode="." glyph-name="period" horiz-adv-x="516" d="M47 322H360L287 0H-27L47 322Z" />
<glyph unicode="/" glyph-name="slash" horiz-adv-x="462" d="M475 1532H719L98 -41H-145L475 1532Z" />
<glyph unicode="0" glyph-name="zero" horiz-adv-x="1169" d="M1169 1114Q1169 1073 1164 1015T1147 876T1115 712T1065 536T996 362T904 203T787 72T641 -16T465 -49Q94 -49 94 369Q94 512 147 743Q187 917 231 1040T356 1270Q551 1526 817 1526Q909 1526 978
1495T1088 1407T1149 1277T1169 1114ZM877 1122Q877 1284 758 1284Q722 1284 691 1270T636 1236T592 1181T558 1119T532 1049T513 983T498 920L422 592Q389 457 389 352Q389 273 415 233T512 193Q540 193 565 203T609 227T648 267T680 314T707 371T729 429T747
490T761 544T774 596L848 913Q873 1036 877 1122Z" />
<glyph unicode="1" glyph-name="one" horiz-adv-x="933" d="M274 1503H889L598 242H874L817 0H-51L6 242H297L530 1262H217L274 1503Z" />
<glyph unicode="2" glyph-name="two" horiz-adv-x="1136" d="M1176 1186Q1176 1117 1157 1052T1106 932T1027 823T931 725T820 635T707 553T592 475T487 401Q437 363 414 339T367 270H985L924 0H-53Q-30 69 -8 125T41 230T92 317T153 395T219 465T300 536T391
610T502 696T627 795Q672 831 694 850T755 907T812 976T846 1051T862 1141Q862 1210 824 1248T717 1286Q659 1286 610 1263T524 1197T462 1111T412 1012L199 1169Q253 1240 294 1287T391 1383T501 1461T626 1507T780 1526Q951 1526 1063 1439T1176 1186Z" />
<glyph unicode="3" glyph-name="three" horiz-adv-x="1107" d="M1124 1284Q1124 1261 1116 1217Q1102 1154 1073 1104T1001 1014T913 947T807 887L803 877Q922 854 985 793T1049 614Q1049 568 1040 535Q1008 398 918 283T700 96Q446 -49 61 -49Q-22 -49 -90 -41L-29
223Q41 209 152 209Q217 209 290 220T444 257T588 321T693 421T735 557Q735 621 693 654T586 688Q483 688 379 635L336 834Q380 852 404 862T486 899T579 946T664 999T742 1059T792 1124T813 1194Q813 1243 777 1269T690 1296Q591 1296 507 1244T334 1100L227 1296Q356
1409 489 1469T778 1530Q839 1530 897 1517T1008 1476T1092 1399T1124 1284Z" />
<glyph unicode="4" glyph-name="four" horiz-adv-x="1146" d="M737 1503H1141L936 621H1063L1008 375H881L793 0H496L584 375H8L80 688L737 1503ZM637 621L786 1266L260 621H637Z" />
<glyph unicode="5" glyph-name="five" horiz-adv-x="1140" d="M410 1503H1190L1130 1241H567L473 967L489 965Q585 1004 692 1004Q869 1004 971 916T1073 655Q1073 527 1029 414T910 218T735 75T523 -15T295 -45Q135 -45 -66 4L41 260Q158 213 285 213Q354 213
420 225T548 267T657 339T732 446T760 590Q760 672 707 720T569 768Q510 768 460 746T350 682H133L410 1503Z" />
<glyph unicode="6" glyph-name="six" horiz-adv-x="1085" d="M1087 582Q1087 398 1002 252T777 29T473 -49Q281 -49 175 51T68 342Q68 425 92 530Q123 667 180 800T320 1060T483 1291T676 1524H1069Q838 1335 700 1163Q691 1152 657 1109T606 1045T563 987T518
919T487 858Q604 932 739 932Q897 932 992 836T1087 582ZM778 559Q778 628 740 663T633 698Q578 698 532 674T457 611T408 522T380 422T371 324Q371 178 508 178Q576 178 630 215T715 310T762 433T778 559Z" />
<glyph unicode="7" glyph-name="seven" horiz-adv-x="1011" d="M250 1503H1204L1176 1384Q1174 1376 1168 1366T1157 1349T1141 1330T1128 1315Q917 1010 745 711Q505 290 385 0H47Q236 370 459 711Q666 1031 819 1233H186L250 1503Z" />
<glyph unicode="8" glyph-name="eight" horiz-adv-x="1167" d="M1182 1227Q1182 1081 1104 973T889 799L885 784Q958 757 993 728T1051 635Q1065 581 1065 537Q1065 482 1049 420Q1022 303 956 204T791 45Q651 -41 436 -41Q261 -41 151 47T41 305Q41 358 51 395Q66
470 90 525T160 631Q252 735 379 782L383 797Q316 829 279 892T242 1032Q242 1073 252 1120Q279 1248 362 1343T560 1485T807 1532Q881 1532 946 1514T1065 1461T1150 1365T1182 1227ZM872 1176Q872 1298 752 1298Q592 1298 543 1096Q532 1046 532 1016Q532 893
657 893Q726 893 776 938T849 1046T872 1176ZM758 541Q758 682 612 682Q548 682 497 648T415 560T370 446T354 326Q354 251 389 218T498 184Q604 184 660 252T743 434Q758 492 758 541Z" />
<glyph unicode="9" glyph-name="nine" horiz-adv-x="1085" d="M1114 1153Q1114 1031 1077 896T982 640T841 394T679 168T508 -29H115Q416 212 621 510Q677 594 696 635Q583 561 428 561Q348 561 274 597T154 698Q94 782 94 915Q94 967 109 1032Q161 1263 320 1404T711
1546Q898 1546 1006 1442T1114 1153ZM815 1165Q815 1236 781 1275T676 1315Q618 1315 573 1292T499 1227T453 1140T422 1038Q406 970 406 934Q406 795 551 795Q608 795 652 816T724 877T770 960T801 1059Q815 1120 815 1165Z" />
<glyph unicode=":" glyph-name="colon" horiz-adv-x="503" d="M209 956H522L449 635H135L209 956ZM61 322H375L301 0H-12L61 322Z" />
<glyph unicode=";" glyph-name="semicolon" horiz-adv-x="452" d="M164 956H477L401 635H88L164 956ZM14 313H332L252 -31L8 -367H-143L82 0H-57L14 313Z" />
<glyph unicode="&lt;" glyph-name="less" horiz-adv-x="1218" d="M1169 219V-16L129 422V614L1169 1053V817L449 518L1169 219Z" />
<glyph unicode="=" glyph-name="equal" horiz-adv-x="1228" d="M1130 870V625H98V870H1130ZM1130 412V166H98V412H1130Z" />
<glyph unicode="&gt;" glyph-name="greater" horiz-adv-x="1220" d="M1182 614V422L141 -16V219L862 518L141 817V1053L1182 614Z" />
<glyph unicode="?" glyph-name="question" horiz-adv-x="985" d="M1075 1300Q1075 1189 1016 1102T850 930Q788 879 764 858T706 802T657 736T626 660T594 551H340Q378 712 422 795T575 985Q586 996 620 1025T674 1074T719 1123T757 1182T770 1239Q770 1282 741
1302T666 1323Q567 1323 463 1153L231 1249Q303 1349 372 1410T535 1505T748 1540Q808 1540 863 1527T967 1488T1045 1413T1075 1300ZM258 322H571L498 0H184L258 322Z" />
<glyph unicode="@" glyph-name="at" horiz-adv-x="1611" d="M1591 868Q1591 694 1511 564T1276 367Q1182 326 1096 326Q1045 326 1011 349T977 422L971 426Q884 326 752 326Q672 326 606 375T506 499T471 651Q471 740 495 819T565 961T685 1059T852 1096Q1010
1096 1096 979L1114 1069H1292L1210 623Q1206 604 1206 567Q1206 512 1229 512Q1278 512 1315 540T1373 612T1403 702T1413 793Q1413 1025 1270 1151T891 1278Q646 1278 493 1120T340 715Q340 545 416 417T624 223T926 156Q1142 156 1303 276L1399 166Q1196 -25
909 -25Q699 -25 523 68T241 332T135 715Q135 923 237 1094T514 1361T897 1458Q998 1458 1098 1433T1286 1356T1443 1235T1551 1070T1591 868ZM1038 731Q1038 804 996 852T881 901Q800 901 743 840T686 696Q686 624 725 578T836 532Q920 532 979 589T1038 731Z"
/>
<glyph unicode="A" glyph-name="A" horiz-adv-x="1323" d="M1067 1503L1153 0H831V299H365L217 0H-104L668 1503H1067ZM481 555H819V1235H801L481 555Z" />
<glyph unicode="B" glyph-name="B" horiz-adv-x="1214" d="M1253 1200Q1253 1109 1222 1032T1118 890T938 797L936 786Q1037 751 1086 677T1135 504Q1135 395 1083 286T946 111Q810 0 469 0H-16L332 1503H774Q827 1503 865 1502T957 1494T1049 1475T1128 1441T1194
1387T1236 1308T1253 1200ZM915 1153Q915 1184 906 1206T882 1241T844 1261T800 1270T750 1272H600L512 891Q633 891 692 897Q792 906 839 948T907 1090Q915 1130 915 1153ZM797 526Q797 605 727 639Q681 659 512 659H459L360 238H524Q647 238 703 289T786 453Q797
491 797 526Z" />
<glyph unicode="C" glyph-name="C" horiz-adv-x="1230" d="M1264 1171Q1264 1144 1263 1123T1257 1072T1251 1024H922Q934 1082 934 1122Q934 1200 895 1228T782 1257Q621 1257 575 1051L459 530Q436 432 436 373Q436 306 476 272T588 238Q641 238 679 257T743
317T784 401T815 512H1147Q1124 396 1070 273T936 84Q792 -37 547 -37Q479 -37 418 -26T300 11T202 75T136 174T111 309Q111 434 135 551L227 973Q253 1090 281 1172T356 1326T463 1441T614 1508T821 1532Q915 1532 993 1513T1133 1452T1229 1339T1264 1171Z" />
<glyph unicode="D" glyph-name="D" horiz-adv-x="1263" d="M1251 1026L1126 471Q1064 198 899 93Q779 16 550 4Q478 0 354 0H-16L332 1503H696Q766 1503 817 1501T933 1492T1041 1471T1132 1433T1206 1374T1252 1289T1270 1174Q1270 1106 1251 1026ZM819 578L891
889Q920 1024 920 1085Q920 1122 914 1148T890 1190T856 1216T805 1230T743 1236T666 1237H606L383 268H446Q545 268 608 283T712 339T776 432T819 578Z" />
<glyph unicode="E" glyph-name="E" horiz-adv-x="1193" d="M332 1503H1341L1278 1229H596L522 909H991L928 635H463L381 281H1106L1040 0H-16L332 1503Z" />
<glyph unicode="F" glyph-name="F" horiz-adv-x="1140" d="M332 1503H1331L1268 1229H600L524 905H969L905 627H461L315 0H-16L332 1503Z" />
<glyph unicode="G" glyph-name="G" horiz-adv-x="1327" d="M1294 1171Q1294 1142 1282 1024H952Q965 1080 965 1122Q965 1198 921 1231T807 1264Q715 1264 656 1203T575 1051L459 530Q436 432 436 373Q436 306 476 272T588 238H598Q603 238 613 239T629 240Q670
245 702 262T753 302T789 360T813 425T831 498L840 537H664L723 786H1227L1040 -16H893L874 88H860Q781 15 694 -13T487 -41Q386 -41 303 -4T165 115T111 309Q111 434 135 551L227 973Q252 1087 285 1171T368 1326T485 1441T644 1508T854 1532Q948 1532 1025 1513T1164
1452T1260 1339T1294 1171Z" />
<glyph unicode="H" glyph-name="H" horiz-adv-x="1312" d="M1087 1503H1425L1077 0H745L895 649H469L319 0H-16L332 1503H666L535 934H956L1087 1503Z" />
<glyph unicode="I" glyph-name="I" horiz-adv-x="827" d="M293 1503H979L948 1372H770L485 137H664L631 0H-55L-25 133H152L438 1372H262L293 1503Z" />
<glyph unicode="J" glyph-name="J" horiz-adv-x="960" d="M756 1503H1083L815 340Q770 142 651 51T332 -41Q-8 -41 -8 223Q-8 333 37 473H303Q272 366 272 301Q272 259 291 240T352 221Q413 221 443 254T489 352L756 1503Z" />
<glyph unicode="K" glyph-name="K" horiz-adv-x="1341" d="M1135 1503H1497L854 782L1200 0H829L512 778L1135 1503ZM332 1503H668L319 0H-16L332 1503Z" />
<glyph unicode="L" glyph-name="L" horiz-adv-x="1150" d="M385 281H1047L981 0H-16L332 1503H668L385 281Z" />
<glyph unicode="M" glyph-name="M" horiz-adv-x="1640" d="M1309 1503H1753L1405 0H1116L1303 809Q1314 859 1329 919T1356 1021T1388 1134T1417 1237H1409L811 0H592L551 1237H541Q529 1180 501 1030T453 799L268 0H-16L332 1503H774Q778 1433 787 1268T801 1010T810
781T815 530H825Q889 688 989 883L1309 1503Z" />
<glyph unicode="N" glyph-name="N" horiz-adv-x="1306" d="M1114 1503H1417L1069 0H799L567 729Q546 800 512 977H502Q481 862 452 724T402 496T342 236T287 0H-16L332 1503H647L872 801Q883 768 899 698Q901 688 905 661T913 621H924Q978 915 985 944L1114 1503Z" />
<glyph unicode="O" glyph-name="O" horiz-adv-x="1277" d="M1264 1171Q1264 1091 1231 922L1157 557Q1129 412 1073 283T936 84Q792 -37 547 -37Q480 -37 419 -26T300 13T202 79T136 177T111 309Q111 371 124 468T154 635L227 973Q253 1089 281 1171T356 1325T463
1440T614 1507T821 1532Q915 1532 993 1513T1133 1452T1229 1339T1264 1171ZM588 238Q641 238 679 257T743 317T784 402T815 514L922 1024Q934 1082 934 1122Q934 1200 895 1228T782 1257Q732 1257 696 1240T635 1189T596 1117T569 1024L459 530Q436 431 436 373Q436
307 476 273T588 238Z" />
<glyph unicode="P" glyph-name="P" horiz-adv-x="1218" d="M1284 1147Q1284 1031 1249 934T1153 769T1009 654T830 585T631 563H446L315 0H-16L332 1503H754Q809 1503 856 1500T960 1488T1060 1463T1147 1420T1220 1357T1266 1267T1284 1147ZM936 1104Q936 1184
877 1219T735 1255H606L504 815H592Q712 815 764 831Q936 885 936 1104Z" />
<glyph unicode="Q" glyph-name="Q" horiz-adv-x="1275" d="M1264 1171Q1264 1091 1231 922L1157 557Q1121 370 1053 242Q1075 204 1101 194T1182 184L1108 -139H1100Q1049 -139 1017 -134T948 -109Q859 -60 842 23Q719 -37 547 -37Q480 -37 419 -26T300 13T202
79T136 177T111 309Q111 371 124 468T154 635L227 973Q253 1089 281 1171T356 1325T463 1440T614 1507T821 1532Q915 1532 993 1513T1133 1452T1229 1339T1264 1171ZM588 238Q664 238 713 281Q696 338 672 365T598 408L664 688Q728 678 764 652T823 559L922 1024Q934
1082 934 1122Q934 1200 895 1228T782 1257Q732 1257 696 1240T635 1189T596 1117T569 1024L459 530Q436 431 436 373Q436 307 476 273T588 238Z" />
<glyph unicode="R" glyph-name="R" horiz-adv-x="1259" d="M1284 1147Q1284 780 895 649L1063 0H705L563 614H453L309 0H-16L332 1503H754Q824 1503 878 1500T989 1488T1089 1462T1169 1419T1232 1355T1270 1266T1284 1147ZM745 1270H602L508 854H571Q738 854
808 884T913 1008Q936 1063 936 1118Q936 1191 887 1230T745 1270Z" />
<glyph unicode="S" glyph-name="S" horiz-adv-x="1146" d="M1264 1300L1006 1102Q859 1284 692 1284Q610 1284 564 1243T518 1135Q518 1092 533 1063T598 1001T741 930Q942 848 1028 747T1114 498Q1114 265 947 125T506 -16Q101 -16 -113 250L127 465Q207 362
313 307T528 252Q628 252 680 294T733 414Q733 455 715 483T645 543T489 618Q306 695 220 801T133 1065Q133 1269 296 1408T719 1548Q1069 1548 1264 1300Z" />
<glyph unicode="T" glyph-name="T" horiz-adv-x="1173" d="M264 1503H1366L1303 1229H928L643 0H299L584 1229H201L264 1503Z" />
<glyph unicode="U" glyph-name="U" horiz-adv-x="1339" d="M1090 1503H1421L1208 508Q1174 351 1123 247T992 79T810 -10T565 -37Q439 -37 350 -10T211 69T138 188T115 346Q115 455 150 618L338 1503H676L467 512Q451 443 451 389Q451 317 485 278T610 238Q673
238 719 259T793 322T838 406T868 510L1090 1503Z" />
<glyph unicode="V" glyph-name="V" horiz-adv-x="1329" d="M1202 1503H1530L733 0H375L264 1503H594L645 850L653 438H662Q722 564 797 714T924 964T1069 1245T1202 1503Z" />
<glyph unicode="W" glyph-name="W" horiz-adv-x="1884" d="M1763 1503H2058L1354 0H1057Q1056 104 1052 370T1047 780Q1047 911 1055 1018H1047Q1032 985 989 887T920 735L575 0H279V1503H561Q553 959 553 684Q553 648 550 582T545 494H557L1022 1503H1305Q1303
1188 1303 557V494H1311Q1350 590 1436 782L1763 1503Z" />
<glyph unicode="X" glyph-name="X" horiz-adv-x="1308" d="M1124 1503H1483L897 786L1163 0H807Q792 51 758 163T699 360T655 526H643L250 0H-106L510 780L250 1503H602L709 1186Q716 1163 729 1111T752 1032H764L1124 1503Z" />
<glyph unicode="Y" glyph-name="Y" horiz-adv-x="1294" d="M1159 1503H1509L850 606L709 0H377L514 594L250 1503H604Q615 1463 641 1368T682 1221T717 1089T752 944H762L1159 1503Z" />
<glyph unicode="Z" glyph-name="Z" horiz-adv-x="1157" d="M326 1503H1325L1264 1237L410 281H1042L977 0H-72L-8 272L866 1229H262L326 1503Z" />
<glyph unicode="[" glyph-name="bracketleft" horiz-adv-x="761" d="M350 1503H946L911 1358H590L250 -121H567L532 -268H-59L350 1503Z" />
<glyph unicode="\" glyph-name="backslash" horiz-adv-x="759" d="M504 1532L616 -41H373L260 1532H504Z" />
<glyph unicode="]" glyph-name="bracketright" horiz-adv-x="755" d="M274 1503H870L461 -268H-131L-96 -121H221L561 1358H240L274 1503Z" />
<glyph unicode="^" glyph-name="asciicircum" horiz-adv-x="1228" d="M829 1434L1055 506H809L666 1194L205 506H-39L612 1434H829Z" />
<glyph unicode="_" glyph-name="underscore" horiz-adv-x="1003" d="M-170 -154H854L829 -256H-195L-170 -154Z" />
<glyph unicode="`" glyph-name="grave" horiz-adv-x="1024" d="M766 1511L889 1214H682L451 1511H766Z" />
<glyph unicode="a" glyph-name="a" horiz-adv-x="1034" d="M578 176H565Q407 -10 242 -10Q123 -10 70 65T16 266Q16 410 61 592T170 907Q217 1005 297 1061T489 1118Q535 1118 585 1099T676 1041T727 952H737L778 1085H1059L807 0H537L578 176ZM592 330L702 807Q681
841 641 863T561 885Q527 885 498 867T451 825T416 761T391 694T373 627Q358 572 338 457T317 301Q317 217 403 217Q493 217 592 330Z" />
<glyph unicode="b" glyph-name="b" horiz-adv-x="1036" d="M1026 889Q1026 766 992 593T909 291Q860 157 769 71T553 -16Q492 -16 449 -2T378 41T334 100T303 176H291L250 0H-20L328 1503H616L492 961L496 952Q573 1031 643 1074T803 1118Q1026 1118 1026 889ZM629
889Q557 889 455 807L342 322Q399 238 477 238Q599 238 647 401Q719 642 719 768Q719 824 696 856T629 889Z" />
<glyph unicode="c" glyph-name="c" horiz-adv-x="892" d="M909 881Q909 833 895 768H674L676 801Q676 848 649 874T565 901Q496 901 450 820T350 532Q342 501 329 425T315 315Q315 261 340 230T414 199Q469 199 515 248T580 354H825Q800 259 767 193T683 79T558
7T385 -16Q35 -16 35 274Q35 302 36 329T38 376T43 420T48 457T54 492T60 521T67 548T72 571Q104 731 152 839T266 1008T408 1093T586 1118Q649 1118 703 1107T805 1070T881 996T909 881Z" />
<glyph unicode="d" glyph-name="d" horiz-adv-x="1034" d="M578 176H565Q407 -10 242 -10Q123 -10 70 65T16 266Q16 410 61 592T170 907Q217 1005 297 1061T489 1118Q535 1118 585 1099T676 1041T727 952H737L864 1503H1155L807 0H537L578 176ZM592 330L702 807Q681
841 641 863T561 885Q527 885 498 867T451 825T416 761T391 694T373 627Q358 572 338 457T317 301Q317 217 403 217Q493 217 592 330Z" />
<glyph unicode="e" glyph-name="e" horiz-adv-x="907" d="M897 852Q897 819 894 785T881 701T867 633T848 550T831 483H317Q295 393 295 338Q295 190 446 190Q574 190 776 281L715 45Q607 10 538 -4T375 -18Q18 -18 18 268Q18 381 59 571Q72 633 84 679T118 785T165
889T229 979T315 1053T427 1099T571 1118Q721 1118 809 1049T897 852ZM662 825Q662 879 634 906T555 934Q531 934 510 925T474 904T443 867T419 825T398 773T381 721T365 666L358 645H631L635 662Q662 786 662 825Z" />
<glyph unicode="f" glyph-name="f" horiz-adv-x="772" d="M930 1507L881 1294Q848 1294 833 1294T794 1293T760 1291T734 1287T711 1281T695 1271T680 1257T670 1238T661 1214T653 1184L631 1085H834L782 868H580L381 0H94L293 862H133L184 1085H344L381 1247Q402
1333 441 1385T557 1473Q648 1516 791 1516Q862 1516 930 1507Z" />
<glyph unicode="g" glyph-name="g" horiz-adv-x="1021" d="M553 205H543Q478 129 407 89T242 49Q123 49 70 124T16 326Q16 429 41 561T111 813Q160 954 257 1038T459 1122Q544 1122 616 1070T727 915H735L778 1100H1049L836 178Q813 80 792 12T739 -120T667 -225T572
-297T444 -342T276 -356Q215 -356 153 -346T26 -302T-63 -217L129 -76Q185 -176 299 -176Q410 -176 471 -88Q485 -68 499 -25T522 53T540 143T553 205ZM586 350L684 772Q663 805 624 823T543 842Q494 842 455 807T392 719T352 603T330 486T324 391Q324 341 351
308T428 274Q448 274 467 278T506 294T535 311T564 333T586 350Z" />
<glyph unicode="h" glyph-name="h" horiz-adv-x="1054" d="M1036 920Q1036 860 1020 786L838 0H551L692 606Q695 620 703 650T714 697T721 737T725 782Q725 860 651 860Q628 860 606 855T559 835T522 812T479 781T442 754L268 0H-20L328 1503H616Q606 1458 584
1360T549 1204T515 1065T475 915H487Q562 1010 638 1061T815 1112Q910 1112 973 1060T1036 920Z" />
<glyph unicode="i" glyph-name="i" horiz-adv-x="509" d="M338 1511H621L563 1266H281L338 1511ZM240 1085H522L272 0H-10L240 1085Z" />
<glyph unicode="j" glyph-name="j" horiz-adv-x="514" d="M338 1518H627L569 1266H281L338 1518ZM240 1085H526L264 -57Q243 -146 201 -208T97 -304T-37 -352T-199 -367Q-223 -367 -293 -358L-238 -121Q-197 -121 -172 -119T-116 -110T-67 -87T-32 -46T-6 20L240 1085Z" />
<glyph unicode="k" glyph-name="k" horiz-adv-x="1042" d="M803 1085H1106L709 594L907 0H600L434 582L803 1085ZM328 1503H612L264 0H-20L328 1503Z" />
<glyph unicode="l" glyph-name="l" horiz-adv-x="516" d="M338 1503H627L279 0H-10L338 1503Z" />
<glyph unicode="m" glyph-name="m" horiz-adv-x="1605" d="M1587 920Q1587 900 1585 879T1581 841T1574 800T1566 763T1556 722T1546 684L1389 0H1108L1276 739Q1277 744 1278 753T1281 770T1282 784Q1282 858 1196 858Q1162 858 1123 840T1061 806T999 758L823
0H543L709 713Q719 768 719 780Q719 860 633 860Q600 860 561 842T497 805T432 754L258 0H-23L229 1085H485L438 883H446Q518 979 610 1045T793 1112Q906 1112 957 1060T1010 909H1020Q1174 1112 1366 1112Q1457 1112 1522 1061T1587 920Z" />
<glyph unicode="n" glyph-name="n" horiz-adv-x="1054" d="M1034 920Q1034 840 1020 786L838 0H549L696 621Q721 721 721 780Q721 816 701 836T645 856Q547 856 438 743L268 0H-20L229 1085H496L449 885H457Q530 986 624 1050T821 1114Q911 1114 972 1062T1034 920Z" />
<glyph unicode="o" glyph-name="o" horiz-adv-x="985" d="M956 821Q956 741 924 561Q889 374 844 262T702 70Q636 17 563 1T381 -16Q231 -16 164 27Q37 108 37 262Q37 404 72 571Q94 681 117 758T180 907T273 1023T406 1092T592 1118Q644 1118 690 1111T786 1084T872
1031T931 945T956 821ZM561 903Q520 903 489 884T437 826T404 752T379 662Q317 410 317 322Q317 197 424 197Q454 197 479 208T522 234T557 280T583 334T604 401T621 471T637 547Q670 733 670 780Q670 903 561 903Z" />
<glyph unicode="p" glyph-name="p" horiz-adv-x="1028" d="M907 309Q889 252 871 209T822 121T757 49T670 2T555 -16Q385 -16 317 150H303L186 -354H-102L231 1096H498L459 924H475Q560 1023 631 1070T797 1118Q915 1118 964 1050T1014 854Q1014 730 980 578T907
309ZM715 745Q715 800 692 833T625 866Q547 866 451 786L336 297Q362 268 375 256T415 229T473 215Q594 215 643 379Q667 461 691 573T715 745Z" />
<glyph unicode="q" glyph-name="q" horiz-adv-x="1026" d="M786 1096H1051L717 -354H428L545 150H530Q459 69 393 30T236 -10Q173 -10 127 17T56 90T20 185T8 291Q8 432 50 611T160 913Q212 1009 295 1063T483 1118Q530 1118 579 1098T671 1033T729 924H748L786
1096ZM586 330L692 786Q671 820 631 842T551 864Q517 864 488 846T441 804T406 740T381 674T362 606Q348 550 330 446T311 301Q311 217 397 217Q487 217 586 330Z" />
<glyph unicode="r" glyph-name="r" horiz-adv-x="804" d="M842 1114L756 739Q640 739 573 721T418 641L270 0H-23L229 1085H504L446 840H455Q495 900 531 943T614 1027T718 1090T842 1114Z" />
<glyph unicode="s" glyph-name="s" horiz-adv-x="862" d="M903 938L717 795Q609 926 489 926Q429 926 396 896T362 817Q362 771 393 740T524 670Q670 611 732 538T795 356Q795 188 673 86T354 -16Q63 -16 -94 176L80 332Q137 257 214 218T371 178Q442 178 480
208T518 295Q518 339 485 368T342 444Q209 499 147 576T84 768Q84 916 202 1017T508 1118Q760 1118 903 938Z" />
<glyph unicode="t" glyph-name="t" horiz-adv-x="837" d="M621 1085H829L780 877H571L442 313Q441 310 440 304T437 292T436 283Q436 221 563 221Q564 221 645 227L594 4Q578 2 540 -2T473 -9T418 -12Q372 -12 335 -8T260 9T197 43T155 101T139 188Q139 236 150
285L287 877H125L174 1085H336L426 1479H711L621 1085Z" />
<glyph unicode="u" glyph-name="u" horiz-adv-x="1050" d="M786 1085H1073L821 0H559L602 184H590Q423 -16 248 -16Q188 -16 145 2T78 54T44 125T33 211Q33 282 57 395L217 1085H504L348 416Q334 362 334 309Q334 270 358 249T420 227Q497 227 614 340L786 1085Z" />
<glyph unicode="v" glyph-name="v" horiz-adv-x="966" d="M764 1085H1040L504 0H225L170 1085H451Q465 618 465 483H475L764 1085Z" />
<glyph unicode="w" glyph-name="w" horiz-adv-x="1441" d="M1274 1085H1530L991 0H778L756 655H745L428 0H207L160 1085H414Q418 663 422 457H434L735 1085H952Q968 713 973 457H981L1274 1085Z" />
<glyph unicode="x" glyph-name="x" horiz-adv-x="999" d="M764 1085H1065L655 553L838 0H535Q499 117 451 307H440Q405 254 403 252L221 0H-82L348 551L182 1085H483L555 801H563Q571 811 583 831T602 860L764 1085Z" />
<glyph unicode="y" glyph-name="y" horiz-adv-x="956" d="M750 1085H1030L528 80Q501 26 479 -15T421 -110T352 -202T273 -276T180 -330Q102 -358 -12 -358Q-85 -358 -152 -344L-96 -102Q-92 -102 -52 -108T6 -115Q110 -115 172 -41Q202 -6 215 18T238 84Q244
96 244 106L160 1085H436L475 541H492L750 1085Z" />
<glyph unicode="z" glyph-name="z" horiz-adv-x="915" d="M231 1085H963L918 887L352 215H770L721 0H-37L8 199L582 874H182L231 1085Z" />
<glyph unicode="{" glyph-name="braceleft" horiz-adv-x="768" d="M784 1503H948L905 1319H825Q745 1319 704 1294T643 1186L555 803Q537 729 454 673T289 610L287 604Q363 601 416 564T469 455Q469 432 463 408L381 49Q381 41 377 23T373 -4Q373 -84 469 -84H582L539
-268H375Q272 -268 196 -208T119 -49Q119 -26 127 14L211 381Q215 397 215 406Q215 435 198 456T151 487T95 501T41 506L88 709Q169 709 235 744T319 852L406 1221Q434 1342 545 1422T784 1503Z" />
<glyph unicode="|" glyph-name="bar" horiz-adv-x="512" d="M369 1536H614L143 -512H-102L369 1536Z" />
<glyph unicode="}" glyph-name="braceright" horiz-adv-x="763" d="M776 709L729 506Q651 506 584 476T502 381L418 14Q389 -108 278 -188T39 -268H-125L-82 -84H-2Q78 -84 120 -59T180 49L262 408Q284 499 358 549T528 604L530 610Q465 617 408 662T350 770Q350
783 354 803L442 1186Q442 1194 446 1212T451 1239Q451 1319 354 1319H242L285 1503H449Q552 1503 628 1443T705 1284Q705 1266 696 1221L610 852Q606 832 606 819Q606 778 635 752T700 718T776 709Z" />
<glyph unicode="~" glyph-name="asciitilde" horiz-adv-x="1116" d="M1014 686L1094 522Q1011 435 928 386T745 336Q697 336 644 357T551 405T453 453T338 475Q234 475 123 350L43 514Q131 602 212 651T391 700Q440 700 487 686T572 651T646 610T722 576T799 561Q903
561 1014 686Z" />
</font>
</defs>
</svg>
