<?xml version="1.0" standalone="no"?> <!DOCTYPE svg PUBLIC "-//W3C//DTD SVG 1.0//EN" "http://www.w3.org/TR/2001/REC-SVG-20010904/DTD/svg10.dtd" > <svg xmlns="http://www.w3.org/2000/svg" width="100%" height="100%">
<defs >
<font id="bellmsfelight" horiz-adv-x="793" ><font-face
    font-family="Bell MSFE Light"
    units-per-em="2048"
    panose-1="2 11 5 6 2 2 3 2 2 4"
    ascent="1531"
    descent="-516"
    alphabetic="0" />
<missing-glyph horiz-adv-x="962" d="M-31 0V1434H993V0H-31ZM481 809L829 1331H133L481 809ZM543 717L891 195V1239L543 717ZM133 102H829L481 625L133 102ZM72 1239V195L420 717L72 1239Z" />
<glyph unicode=" " glyph-name="space" horiz-adv-x="563" />
<glyph unicode="!" glyph-name="exclam" horiz-adv-x="735" d="M287 1397H449L418 477H319L287 1397ZM459 205V0H279V205H459Z" />
<glyph unicode="&quot;" glyph-name="quotedbl" horiz-adv-x="620" d="M113 881V1436H248V881H113ZM375 881V1436H510V881H375Z" />
<glyph unicode="#" glyph-name="numbersign" horiz-adv-x="1167" d="M1026 561L1030 451H813L752 0H625L688 451H422L360 0H233L297 451H84L80 561H313L356 872H141L137 983H371L434 1434H559L496 983H762L825 1434H950L887 983H1083L1087 872H872L829 561H1026ZM748
872H481L438 561H705L748 872Z" />
<glyph unicode="$" glyph-name="dollar" horiz-adv-x="1077" d="M469 1266V1446H575V1266Q682 1252 757 1223T903 1130L834 1026Q766 1082 706 1114T575 1157V729Q720 669 765 644Q900 567 929 450Q938 413 938 371Q938 208 841 122T575 14V-258H469V10Q349 19
270 54T90 170L160 281Q270 154 469 125V621Q421 640 396 650T328 682T261 721T206 766T160 823T133 891T121 975Q121 1069 172 1136T301 1235T469 1266ZM469 768V1161Q408 1159 364 1142T296 1097T261 1040T250 981Q250 876 350 819Q365 811 410 792T469 768ZM575
588V129Q680 137 745 191T811 346Q811 391 796 428T759 488T702 533T640 564T575 588Z" />
<glyph unicode="%" glyph-name="percent" horiz-adv-x="1986" d="M184 958Q184 1092 281 1186T512 1280Q640 1280 734 1187T829 958T737 728T512 633Q379 633 282 725T184 958ZM512 1149Q434 1149 375 1095T315 956Q315 875 371 820T510 764T645 821T698 956Q698
1042 641 1095T512 1149ZM1157 344Q1157 478 1254 572T1485 666Q1612 666 1707 572T1802 344Q1802 209 1709 114T1485 18Q1351 18 1254 110T1157 344ZM1485 537Q1404 537 1345 482T1286 342Q1286 260 1343 205T1481 150Q1563 150 1617 207T1671 344Q1671 429 1612
483T1485 537ZM1352 1319H1456L635 -12H530L1352 1319Z" />
<glyph unicode="&amp;" glyph-name="ampersand" horiz-adv-x="1417" d="M1147 696L1270 641Q1201 422 1028 227Q1055 195 1072 178T1118 136T1181 100T1253 88Q1279 88 1299 93T1330 103T1358 119V-23Q1290 -45 1245 -45Q1201 -45 1159 -33T1087 -6T1025 35T976
78T934 123Q880 69 817 32T697 -20T606 -41T543 -47Q454 -47 380 -21T256 46T173 142T124 253T109 365Q109 417 122 465T154 550T205 622T262 681T327 731T386 769T442 801Q384 895 356 963T328 1116Q328 1227 410 1308T610 1389Q675 1389 727 1370T810 1322T862
1256T891 1184T899 1118Q899 914 616 762Q641 723 662 690T709 621T748 566T794 505T835 451T888 385T942 317Q1082 496 1147 696ZM541 82Q644 82 724 126T848 223Q776 302 707 394T602 541T502 696Q465 673 446 661T396 627T348 588T310 545T278 493T260 434T252
362Q252 341 256 314T279 243T326 166T411 107T541 82ZM555 860Q597 883 623 900T688 952T747 1029T768 1124Q768 1169 752 1202T710 1252T659 1276T610 1284Q566 1284 534 1267T485 1223T462 1169T455 1116Q455 1015 555 860Z" />
<glyph unicode="&apos;" glyph-name="quotesingle" horiz-adv-x="393" d="M129 881V1436H264V881H129Z" />
<glyph unicode="(" glyph-name="parenleft" horiz-adv-x="735" d="M442 1399H588Q448 1247 370 1058T291 688Q291 591 307 505T345 354T410 215T489 91T586 -37H449Q302 140 235 305T168 686Q168 790 189 890T237 1060T307 1204T377 1314T442 1399Z" />
<glyph unicode=")" glyph-name="parenright" horiz-adv-x="735" d="M147 1399H293Q332 1350 358 1315T427 1205T498 1061T546 891T567 686Q567 471 501 306T287 -37H150Q211 43 246 91T324 214T390 353T428 504T444 688Q444 869 366 1058T147 1399Z" />
<glyph unicode="*" glyph-name="asterisk" horiz-adv-x="1077" d="M164 1075L205 1206L502 1073L465 1395H596L565 1073L864 1219L909 1087L580 1020L817 780L709 694L535 981L387 696L274 780L492 1018L164 1075Z" />
<glyph unicode="+" glyph-name="plus" horiz-adv-x="1167" d="M516 586V1036H651V586H1100V451H651V0H516V451H68V586H516Z" />
<glyph unicode="," glyph-name="comma" horiz-adv-x="507" d="M362 225V-20L260 -373H133L223 0H133V225H362Z" />
<glyph unicode="-" glyph-name="hyphen" horiz-adv-x="620" d="M49 471V584H573V471H49Z" />
<glyph unicode="." glyph-name="period" horiz-adv-x="507" d="M354 225V0H125V225H354Z" />
<glyph unicode="/" glyph-name="slash" horiz-adv-x="507" d="M63 -49H-76L440 1389H584L63 -49Z" />
<glyph unicode="0" glyph-name="zero" horiz-adv-x="1077" d="M963 635Q963 563 956 494T934 345T887 200T813 80T703 -6T553 -37Q453 -37 375 4T250 110T171 263T129 436T117 614Q117 790 150 923T243 1134T379 1251T549 1290Q609 1290 666 1270T777 1200T872
1078T938 891T963 635ZM254 641Q254 537 267 445T311 266T401 128T541 76Q602 76 650 104T727 181T777 285T806 407T819 526T823 631Q823 686 819 738T805 855T774 974T723 1074T643 1147T530 1174Q479 1174 438 1153T368 1099T319 1018T285 923T266 821T257 725T254
641Z" />
<glyph unicode="1" glyph-name="one" horiz-adv-x="1077" d="M154 1255H629V115H899V0H201V115H481V1139H154V1255Z" />
<glyph unicode="2" glyph-name="two" horiz-adv-x="1077" d="M211 930L106 999Q117 1023 125 1038T154 1086T195 1142T248 1193T317 1239T403 1269T508 1282Q605 1282 681 1252T804 1172T875 1059T899 928Q899 868 878 811T830 714T752 625T667 550T572 479Q565
474 561 471T528 447T489 418T452 389T412 356T376 323T339 286T310 249T283 208T265 167T254 123H913V0H111Q130 202 229 331Q286 407 422 516Q438 529 472 555Q510 586 530 602Q658 709 706 773T754 918Q754 1022 691 1091T506 1161Q295 1161 211 930Z" />
<glyph unicode="3" glyph-name="three" horiz-adv-x="1077" d="M84 -45V61Q159 62 204 64T324 76T466 106T596 162Q682 209 740 278T799 434Q799 536 737 586T569 637Q496 637 381 598L344 696Q364 705 417 727T504 765T584 809T658 865T706 933T727 1020Q727
1084 680 1124T549 1165Q456 1165 379 1124T211 1006L150 1100Q359 1282 545 1282Q633 1282 698 1258T799 1193T851 1109T868 1016Q868 966 850 924T802 852T742 803T681 763T637 733V729Q637 721 670 721Q794 721 869 644T944 442Q944 376 920 315T864 213T790
136T720 83T670 55Q603 21 524 0T354 -30T215 -41T84 -45Z" />
<glyph unicode="4" glyph-name="four" horiz-adv-x="1077" d="M672 494V1149Q672 1169 659 1169Q651 1169 637 1155L199 530Q193 518 193 512Q193 502 196 498T211 494H672ZM813 494H979V371H813V0H674V371H70V547L582 1280H813V494Z" />
<glyph unicode="5" glyph-name="five" horiz-adv-x="1077" d="M211 1255H860V1143H319L287 780Q327 798 353 808T430 829T532 840Q609 840 680 816T812 746T909 621T946 442Q946 324 902 231T780 79T604 -10T391 -41Q306 -41 214 -20T78 25L100 147Q180 118 214
107T306 85T426 74Q508 74 575 97T684 158T756 243T797 339T809 432Q809 507 781 564T708 652T614 698T516 713Q457 713 407 697T331 663T284 628T256 612H139L211 1255Z" />
<glyph unicode="6" glyph-name="six" horiz-adv-x="1077" d="M442 1284H629Q542 1195 437 1061T276 807Q258 768 244 724T225 657T219 629Q219 616 225 616Q244 616 254 627Q335 708 401 742T569 776Q746 776 860 658T975 369Q975 176 849 64T528 -49Q421 -49
335 -6T194 111T111 277T82 471Q82 585 110 694T194 909T305 1097T442 1284ZM838 365Q838 486 752 571T543 657T336 571T250 365Q250 242 335 156T543 70Q665 70 751 156T838 365Z" />
<glyph unicode="7" glyph-name="seven" horiz-adv-x="1077" d="M78 1255H936V1178Q598 577 440 0H268Q319 207 468 527T770 1128H78V1255Z" />
<glyph unicode="8" glyph-name="eight" horiz-adv-x="1077" d="M969 330Q969 250 943 186T873 79T767 8T638 -32T494 -45Q301 -45 190 63T78 330Q78 387 91 434T121 511T166 565T214 603T261 631Q271 636 276 639Q285 644 303 651T330 663T340 674T323 685T278
702T231 725Q115 800 115 944Q115 1105 228 1191T520 1278Q582 1278 639 1268T751 1233T844 1173T908 1083T932 961Q932 881 897 822T809 733Q788 721 761 708T720 687T707 676Q707 670 712 667T743 653Q969 562 969 330ZM524 612Q491 612 456 607T378 583T301
537T246 457T223 340Q223 219 302 143T516 66Q669 66 749 145T829 342Q829 403 807 451T750 529T673 577T593 604T524 612ZM799 958Q799 1048 727 1105T508 1163Q400 1163 325 1108T250 948Q250 848 325 787T502 725Q637 725 718 780T799 958Z" />
<glyph unicode="9" glyph-name="nine" horiz-adv-x="1077" d="M606 -43H422Q478 13 518 57T621 185T733 356Q758 399 794 485T831 604Q831 621 815 621Q806 621 780 592Q719 520 653 492T492 463Q381 463 287 510T134 646T76 850Q76 1046 196 1166T512 1286Q650
1286 755 1218T913 1038T967 786Q967 669 941 557T863 340T750 146T606 -43ZM213 997T213 874T299 667T508 582Q629 582 715 667T801 874Q801 995 715 1082T508 1169Q385 1169 299 1083Z" />
<glyph unicode=":" glyph-name="colon" horiz-adv-x="620" d="M428 999V774H199V999H428ZM428 225V0H199V225H428Z" />
<glyph unicode=";" glyph-name="semicolon" horiz-adv-x="620" d="M428 999V774H199V999H428ZM428 225V-20L326 -373H199L289 0H199V225H428Z" />
<glyph unicode="&lt;" glyph-name="less" horiz-adv-x="1167" d="M1104 123V-16L63 455V582L1104 1053V913L233 518L1104 123Z" />
<glyph unicode="=" glyph-name="equal" horiz-adv-x="1167" d="M1100 791V655H68V791H1100ZM1100 381V246H68V381H1100Z" />
<glyph unicode="&gt;" glyph-name="greater" horiz-adv-x="1167" d="M63 123L934 518L63 913V1053L1104 582V455L63 -16V123Z" />
<glyph unicode="?" glyph-name="question" horiz-adv-x="962" d="M807 1096Q807 1045 794 1001T751 916T699 851T637 788Q589 742 568 718T527 658T503 581T498 473H381V561Q381 648 413 708T506 829L571 897Q620 947 644 994T668 1100Q668 1178 618 1231T459
1284Q436 1284 420 1283T372 1272T316 1244T262 1189T209 1100L78 1149Q90 1176 107 1203T159 1268T235 1333T340 1381T477 1401Q633 1401 720 1310T807 1096ZM522 205V0H342V205H522Z" />
<glyph unicode="@" glyph-name="at" horiz-adv-x="1576" d="M1327 326L1401 256Q1311 131 1159 53T827 -25Q672 -25 533 33T295 192T137 430T78 723Q78 924 179 1093T450 1360T819 1458Q955 1458 1080 1413T1298 1290T1444 1106T1499 879Q1499 782 1470 692T1391
534T1282 416T1156 339T1032 313Q978 313 941 347T901 444L897 440Q778 313 643 313Q526 313 450 400T373 604Q373 680 393 757T454 904T550 1028T679 1113T836 1145Q986 1145 1057 985L1098 1100H1221L1069 584Q1047 528 1050 478T1094 428Q1164 428 1231 493T1337
653T1376 834Q1376 989 1299 1108T1096 1288T819 1350Q690 1350 575 1299T380 1162T252 958T205 711Q205 538 288 394T515 167T831 84Q973 84 1107 149T1327 326ZM836 1022Q769 1022 707 982T605 882T540 756T516 637Q516 549 564 495T684 440Q747 440 806 480T906
581T970 708T995 829Q995 903 946 962T836 1022Z" />
<glyph unicode="A" glyph-name="A" horiz-adv-x="1257" d="M346 446H911L641 1184Q638 1190 631 1190Q626 1190 621 1180L346 446ZM182 0H31L559 1380H702L1227 0H1073L950 332H305L182 0Z" />
<glyph unicode="B" glyph-name="B" horiz-adv-x="1212" d="M317 1247V793Q433 792 513 792T651 797T752 815Q819 834 870 887T922 1024Q922 1098 878 1152T768 1229Q715 1247 623 1247H317ZM174 0V1360H629Q861 1360 963 1264Q1057 1176 1057 1040Q1057 975 1036
923T985 840T919 789T858 761T817 750Q813 748 813 741Q813 729 836 729Q944 718 1027 627T1110 397Q1110 311 1077 232T979 96Q940 62 895 41T794 12T703 2T606 0H174ZM317 123H621Q655 123 676 123T738 129T806 144T867 173T921 220T956 292T971 391Q971 412
970 426T963 470T946 523T910 573T852 621Q757 678 610 678H317V123Z" />
<glyph unicode="C" glyph-name="C" horiz-adv-x="1128" d="M1010 1010L887 969Q874 1107 802 1191T602 1276Q533 1276 476 1248T383 1176T318 1072T276 955T253 837T242 736T240 664Q240 626 241 596T248 500T267 383T306 269T369 165T463 95T594 66Q655 66 705
86T788 139T845 216T883 305T903 397L1026 360Q1021 317 1009 272T964 166T888 61T768 -17T598 -49Q567 -49 546 -48T478 -37T394 -9T311 46T227 137Q102 317 102 612Q102 955 211 1149Q346 1389 621 1389Q781 1389 886 1285T1010 1010Z" />
<glyph unicode="D" glyph-name="D" horiz-adv-x="1230" d="M174 0V1360H526Q607 1360 667 1352T795 1321T921 1248T1028 1120Q1088 1023 1108 914T1128 670Q1128 366 958 166Q910 111 854 76T733 25T615 5T485 0H174ZM315 1241V123H508Q657 123 750 163T909 322Q954
401 972 507T991 680Q991 1045 793 1176Q720 1223 645 1232T315 1241Z" />
<glyph unicode="E" glyph-name="E" horiz-adv-x="1187" d="M174 0V1360H1032V1241H315V778H932V653H315V123H1055V0H174Z" />
<glyph unicode="F" glyph-name="F" horiz-adv-x="1118" d="M174 0V1360H1026V1241H315V750H913V631H315V0H174Z" />
<glyph unicode="G" glyph-name="G" horiz-adv-x="1271" d="M1022 1059L899 1012Q890 1038 887 1048T872 1085T854 1126T831 1162T802 1198T767 1228T723 1253T670 1268T606 1274Q540 1274 486 1250T394 1188T329 1093T285 981T260 859T247 739T244 629Q244 591
247 549T261 451T288 343T333 240T399 151T490 90T610 66Q750 66 836 152Q873 189 897 237T931 339T944 428T948 512H584V631H1067V-37H1024L944 121Q919 92 897 71T833 18T736 -31T618 -49Q326 -49 201 190Q160 266 136 369T107 532T102 641Q102 854 150 1005T283
1245Q330 1295 380 1327T479 1371T555 1386T618 1389Q635 1389 664 1386T748 1365T842 1321Q958 1240 1022 1059Z" />
<glyph unicode="H" glyph-name="H" horiz-adv-x="1230" d="M174 0V1360H317V772H913V1360H1057V0H913V653H317V0H174Z" />
<glyph unicode="I" glyph-name="I" horiz-adv-x="735" d="M145 0V80H295V1280H145V1360H588V1280H438V80H588V0H145Z" />
<glyph unicode="J" glyph-name="J" horiz-adv-x="950" d="M61 303L215 375Q211 321 211 297Q211 284 211 273T216 237T227 192T251 148T288 107T345 80T424 68Q463 68 496 76T552 96T594 128T624 167T644 213T657 260T663 308T665 353T666 393V1360H807V373Q807
314 801 266T776 164T726 70T639 -1T508 -45Q475 -51 422 -51Q332 -51 266 -29T145 57Q61 152 61 303Z" />
<glyph unicode="K" glyph-name="K" horiz-adv-x="1249" d="M1001 1360H1174L557 743L1221 0H1032L379 737L1001 1360ZM174 0V1360H311V0H174Z" />
<glyph unicode="L" glyph-name="L" horiz-adv-x="1073" d="M315 1360V123H1012V0H174V1360H315Z" />
<glyph unicode="M" glyph-name="M" horiz-adv-x="1617" d="M174 0V1360H459L698 522Q709 484 730 389T768 236Q782 190 799 190Q811 190 820 201T837 232T848 268T857 309T864 340Q905 498 915 532L1155 1360H1444V0H1307V1266Q1307 1279 1300 1287T1280 1296Q1266
1296 1260 1288T1245 1255Q1242 1248 1230 1203T1212 1145L885 0H719L430 1036Q427 1045 401 1148T369 1270Q358 1292 351 1296Q346 1298 340 1298Q311 1298 311 1266V0H174Z" />
<glyph unicode="N" glyph-name="N" horiz-adv-x="1255" d="M174 1360H416L772 498Q789 458 827 352T883 205Q885 199 891 184T900 161T908 144T918 130T930 125Q935 125 940 133T946 156V1360H1081V0H834L457 924L371 1143Q366 1157 360 1174T350 1201T342 1219T335
1231T326 1235Q318 1235 314 1230T309 1217V0H174V1360Z" />
<glyph unicode="O" glyph-name="O" horiz-adv-x="1165" d="M920 668Q920 718 918 764T907 874T884 990T844 1097T784 1189T699 1250T584 1274Q396 1274 305 1059Q246 913 246 653Q246 387 317 244Q410 66 578 66Q669 66 738 115T848 252Q873 305 889 361T911 477T918
573T920 668ZM1063 668Q1063 396 977 207Q944 133 897 81T797 1T695 -37T594 -49Q385 -49 256 96Q102 270 102 629Q102 728 105 795T129 961T188 1143Q208 1184 236 1222T311 1300T425 1365T573 1389Q812 1389 938 1204Q1000 1113 1031 970T1063 668Z" />
<glyph unicode="P" glyph-name="P" horiz-adv-x="1173" d="M590 1247H348V688H586Q780 688 865 748T950 954Q950 1024 932 1076T884 1160T806 1212T708 1239T590 1247ZM205 0V1360H600Q846 1360 956 1270Q1092 1159 1092 965Q1092 861 1054 784T967 662Q931 629
890 609T799 581T716 571T627 569H348V0H205Z" />
<glyph unicode="Q" glyph-name="Q" horiz-adv-x="1177" d="M1104 -92V-240Q1066 -244 1028 -244Q945 -244 901 -212T807 -109L745 -20Q723 -29 668 -43Q628 -49 594 -49Q385 -49 256 96Q102 270 102 629Q102 728 105 795T129 961T188 1143Q208 1184 236 1222T311
1300T425 1365T573 1389Q812 1389 938 1204Q1000 1113 1031 970T1063 668Q1063 396 977 207Q933 105 850 39L874 2Q949 -102 1036 -102Q1066 -102 1104 -92ZM600 389L774 145Q817 185 848 252Q873 305 889 361T911 477T918 573T920 668Q920 718 918 764T907 874T884
990T844 1097T784 1189T699 1250T584 1274Q396 1274 305 1059Q246 913 246 653Q246 383 315 244Q408 66 578 66Q628 66 674 82L508 322L600 389Z" />
<glyph unicode="R" glyph-name="R" horiz-adv-x="1249" d="M205 0V1360H649Q727 1360 787 1351T886 1323T945 1291T989 1255Q1090 1162 1090 989Q1090 936 1080 888T1044 789T977 702T870 640T719 612L1147 0H975L582 602H346V0H205ZM346 725H575Q607 725 624
725T676 728T732 734T784 748T835 769T877 801T912 846T933 906T942 983Q942 1033 932 1073T905 1139T862 1184T811 1213T753 1228T695 1235T637 1237H346V725Z" />
<glyph unicode="S" glyph-name="S" horiz-adv-x="1087" d="M942 1108L815 1044Q806 1068 801 1081T782 1121T755 1166T718 1206T668 1242T604 1264T522 1274Q500 1274 474 1271T411 1253T345 1214T295 1145T274 1040Q274 998 290 962T327 902T381 856T435 825T483
803Q509 792 581 765T680 725Q761 691 813 659T906 582T966 476T985 332Q985 242 945 161T844 35Q731 -49 539 -49Q248 -49 102 268L225 328Q245 267 281 217T343 146T389 113Q469 68 586 68Q618 68 651 75T721 100T785 146T831 220T850 326Q850 487 705 557L637
590Q588 615 493 654T377 702Q345 718 328 727T280 758T226 808T182 877Q145 955 145 1038Q145 1195 245 1292T537 1389Q672 1389 768 1326T942 1108Z" />
<glyph unicode="T" glyph-name="T" horiz-adv-x="1191" d="M88 1360H1104V1241H668V0H522V1241H88V1360Z" />
<glyph unicode="U" glyph-name="U" horiz-adv-x="1183" d="M143 1360H287V387Q287 308 311 247T369 154T446 101T518 76T573 70Q727 70 815 160T903 408V1360H1040V406Q1040 186 917 69T575 -49Q373 -49 258 75T143 401V1360Z" />
<glyph unicode="V" glyph-name="V" horiz-adv-x="1165" d="M649 0H510L31 1360H174L565 223L568 217Q571 211 573 211H588Q592 211 598 223L989 1360H1135L649 0Z" />
<glyph unicode="W" glyph-name="W" horiz-adv-x="1761" d="M1335 440L1583 1360H1731L1337 0H1192L938 952Q929 986 919 1033T901 1106T885 1147H870Q861 1137 855 1111T838 1034T817 944L575 0H430L31 1360H172L434 422Q435 419 451 353T478 248T496 209H508Q514
209 523 243T546 343T567 436L805 1360H950L1200 426Q1204 412 1214 360T1234 265T1255 209H1268Q1275 209 1287 248T1316 359T1335 440Z" />
<glyph unicode="X" glyph-name="X" horiz-adv-x="1165" d="M659 709L1145 0H979L668 453Q639 494 614 543Q612 547 609 556T602 572T594 584Q576 602 557 582Q553 578 548 566L543 553Q535 537 469 438L172 0H20L500 698L51 1360H215L481 967Q565 834 567 825Q574
811 586 811Q596 811 614 846Q659 923 719 1014L952 1360H1106L659 709Z" />
<glyph unicode="Y" glyph-name="Y" horiz-adv-x="1196" d="M674 520V0H530V520L31 1360H188L549 735Q554 726 560 713T571 693T580 677T591 666T604 662Q613 662 624 679T657 739T694 809L1008 1360H1165L674 520Z" />
<glyph unicode="Z" glyph-name="Z" horiz-adv-x="995" d="M45 1241V1360H946V1264L340 315L305 268Q270 220 245 183T219 139Q219 121 252 121H965V0H31V96L651 1069Q657 1079 687 1119T741 1194T766 1233Q766 1241 756 1241H45Z" />
<glyph unicode="[" glyph-name="bracketleft" horiz-adv-x="735" d="M221 1319V76Q425 73 657 86V10Q564 10 378 5T98 0V1395Q177 1395 366 1389T657 1384V1313Q585 1313 440 1316T221 1319Z" />
<glyph unicode="\" glyph-name="backslash" horiz-adv-x="507" d="M584 -49H444L-76 1389H68L584 -49Z" />
<glyph unicode="]" glyph-name="bracketright" horiz-adv-x="735" d="M514 76V1319Q442 1319 296 1316T78 1313V1384Q180 1382 369 1388T637 1395V0Q544 0 358 5T78 10V86Q310 73 514 76Z" />
<glyph unicode="^" glyph-name="asciicircum" horiz-adv-x="1167" d="M516 1434H647L1114 504H967L582 1282L201 504H53L516 1434Z" />
<glyph unicode="_" glyph-name="underscore" horiz-adv-x="962" d="M993 -256H-31V-154H993V-256Z" />
<glyph unicode="`" glyph-name="grave" horiz-adv-x="507" d="M-16 1391H141L371 1108H266L-16 1391Z" />
<glyph unicode="a" glyph-name="a" horiz-adv-x="1005" d="M723 606V727Q723 754 722 769T711 812T683 854T627 881T535 893Q458 893 392 867T240 786L182 915Q302 973 376 992T541 1012Q685 1012 764 952Q798 927 819 899T848 839T858 789T860 741V199Q860 138
893 111Q906 100 918 98T975 96V-16Q928 -16 907 -15T862 -10T819 6Q782 28 761 74T739 154Q739 170 737 176Q736 176 734 177T731 178Q727 178 725 176Q640 80 562 33T375 -14Q294 -14 247 7T164 66Q125 107 109 158T92 246Q92 300 108 347T147 425T201 482T256
522T305 547Q369 575 446 588T574 604T723 606ZM719 281V522Q652 522 610 520T511 508T408 479Q327 446 279 390T231 256Q231 240 234 222T249 180T278 138T330 107T406 94T500 116T594 170T669 231T719 281Z" />
<glyph unicode="b" glyph-name="b" horiz-adv-x="962" d="M113 1376L248 1450V827Q248 821 252 815T262 809Q272 809 279 821Q282 825 283 827Q304 866 319 888T366 942T440 990T539 1006Q577 1006 616 997T707 956T797 873T863 726T891 506Q891 277 809 141Q719
-12 535 -12Q397 -12 301 123Q266 182 260 182Q244 182 244 162V-23L113 51V1376ZM516 100Q581 100 629 135T704 230T743 354T756 492Q756 518 756 537T751 601T738 680T712 756T670 825T607 872T520 891Q405 891 326 778T246 485Q246 389 276 303T370 159T516
100Z" />
<glyph unicode="c" glyph-name="c" horiz-adv-x="845" d="M782 815L668 752Q658 771 653 781T629 816T590 856T538 884T467 897Q406 897 359 870T285 801T240 701T217 590T211 479Q211 312 270 217Q312 150 368 124T469 98Q509 98 541 110T593 136T630 176T654
215T670 252L811 190Q720 -16 457 -16Q385 -16 319 12T197 100T106 264T72 510Q72 726 182 869T467 1012Q589 1012 655 969T782 815Z" />
<glyph unicode="d" glyph-name="d" horiz-adv-x="964" d="M852 1458V51L721 -23V162Q721 179 712 183Q708 185 705 182Q699 176 674 139T624 72T545 15T428 -12Q335 -12 264 32T152 150T92 306T72 477Q72 551 81 620T114 761T177 886T279 972T426 1006Q463 1006
497 996T555 972T602 937T638 899T664 861T681 832T690 813Q692 809 702 809Q717 809 717 827V1382L852 1458ZM438 100Q513 100 570 136T658 234T704 362T719 500Q719 670 640 780T446 891Q387 891 342 862T272 790T232 693T212 594T207 510Q207 309 272 205T438
100Z" />
<glyph unicode="e" glyph-name="e" horiz-adv-x="882" d="M213 606H672Q672 734 631 803Q602 850 554 873T455 897Q359 897 293 826T213 606ZM811 508H209Q209 102 471 102Q599 102 688 211L782 137Q716 56 643 22T467 -12Q391 -12 326 15T215 89T137 197T88 328T72
469Q72 702 160 842Q268 1010 461 1010Q524 1010 575 994T661 953T722 887T764 806T790 711T804 611T811 508Z" />
<glyph unicode="f" glyph-name="f" horiz-adv-x="620" d="M621 1411V1284Q559 1321 496 1321Q451 1321 421 1304T376 1256T356 1192T350 1116V938H588V834H354V0H219V834H18V938H219V1120Q219 1160 221 1185T231 1252T263 1329T324 1391Q388 1436 473 1436Q519
1436 543 1432T621 1411Z" />
<glyph unicode="g" glyph-name="g" horiz-adv-x="962" d="M715 817V985H836V162Q836 106 833 63T820 -31T793 -119T744 -192T670 -252T564 -289T422 -303Q279 -303 193 -264V-129H268Q310 -166 348 -182T457 -199Q698 -199 698 72V240Q698 256 688 256Q684 256
682 254Q656 175 580 132T416 88Q350 88 293 115T196 187T128 290T86 409T72 532Q72 651 101 743T179 890T289 971T418 999Q480 999 531 979T613 927T663 869T690 817Q695 805 707 803Q715 811 715 817ZM451 201Q563 201 635 300T707 541Q707 698 635 795T449 893Q387
893 339 862T263 783T221 682T207 578Q207 201 451 201Z" />
<glyph unicode="h" glyph-name="h" horiz-adv-x="962" d="M248 0H113V1374L252 1444V786Q252 774 258 770H266Q294 808 315 833T369 892T432 945T501 979T582 993Q726 993 783 915T840 684V0H705V657Q705 697 704 723T694 783T671 837T628 872T561 887Q479 887
391 811Q357 782 303 720T248 645V0Z" />
<glyph unicode="i" glyph-name="i" horiz-adv-x="413" d="M143 981H270V0H143V981ZM115 1176V1380H295V1176H115Z" />
<glyph unicode="j" glyph-name="j" horiz-adv-x="468" d="M-20 -283V-143Q54 -193 111 -193Q131 -193 146 -187T170 -168T184 -142T192 -109T194 -77T195 -43V981H326V-72Q326 -305 100 -305Q35 -305 -20 -283ZM168 1176V1380H348V1176H168Z" />
<glyph unicode="k" glyph-name="k" horiz-adv-x="888" d="M113 0V1370L246 1446V0H113ZM281 483V512L705 981H864L426 508L879 0H702L281 483Z" />
<glyph unicode="l" glyph-name="l" horiz-adv-x="413" d="M143 0V1370L270 1436V0H143Z" />
<glyph unicode="m" glyph-name="m" horiz-adv-x="1519" d="M113 0V930L238 999V786Q238 764 252 764Q269 779 293 811T341 872T396 930T474 976T575 993Q626 993 665 981T726 952T765 908T788 860T803 809T817 766Q822 757 829 764Q839 774 860 805T904 866T963
926T1050 976T1167 995Q1296 995 1346 921T1397 711V0H1268V694Q1268 734 1264 764T1246 825T1203 872T1130 889Q1080 889 1021 855T920 778T848 697T819 649V0H690V680Q690 724 686 755T669 819T628 869T555 887Q520 887 486 875T427 846T367 792T309 727T242
643V0H113Z" />
<glyph unicode="n" glyph-name="n" horiz-adv-x="956" d="M113 0V934L242 1004V782Q242 773 247 768T258 768Q266 774 286 802T334 861T397 923T486 974T598 995Q654 995 696 979T764 937T806 871T828 789T834 694V0H700V698Q700 721 700 732T698 765T694 798T684
826T669 852T646 871T614 885T571 889Q510 889 463 864T365 793Q284 718 246 633V0H113Z" />
<glyph unicode="o" glyph-name="o" horiz-adv-x="935" d="M729 473Q729 529 723 582T699 692T653 792T577 861T467 889Q403 889 354 860T278 788T234 685T212 572T207 461Q207 397 222 335T269 220T354 133T477 100Q548 100 599 134T678 225T717 344T729 473ZM864
483Q864 -18 459 -18Q357 -18 280 26T158 146T93 309T72 496Q72 591 94 678T162 841T285 962T465 1008Q551 1008 619 978T733 897T808 778T851 636T864 483Z" />
<glyph unicode="p" glyph-name="p" horiz-adv-x="960" d="M246 471Q246 411 264 348T317 229T405 139T524 104Q578 104 620 129T687 193T728 283T750 381T756 473Q756 889 512 889Q463 889 418 865T333 794T270 663T246 471ZM113 934L246 1010V811Q246 801 252
801H256Q262 806 287 844T339 915T423 977T547 1006Q595 1006 641 990T733 935T813 840T868 695T889 498Q889 265 797 128T541 -10Q491 -10 446 8T373 50T320 105T286 153T270 184Q270 190 262 190Q252 190 252 176V-354H113V934Z" />
<glyph unicode="q" glyph-name="q" horiz-adv-x="960" d="M715 1010L848 934V-354H711V176L707 186Q706 191 700 191T690 184Q655 101 581 46T420 -10Q347 -10 287 19T188 98T122 212T84 345T72 485Q72 574 88 658T141 824T248 956T414 1006Q458 1006 495 995T558
968T612 922T657 867T702 801H707Q715 801 715 811V1010ZM715 504Q715 676 638 782T451 889Q379 889 328 853T251 756T214 631T203 494Q203 429 213 368T246 244T318 143T436 104Q549 104 632 215T715 504Z" />
<glyph unicode="r" glyph-name="r" horiz-adv-x="735" d="M113 0V930L246 999V641Q246 629 252 629Q265 629 285 657T337 730T409 823T517 920T664 997V768Q568 768 492 735T363 651T250 514V0H113Z" />
<glyph unicode="s" glyph-name="s" horiz-adv-x="786" d="M72 92L125 209Q256 92 389 92Q487 92 542 138T598 258Q598 307 569 346T492 406Q260 499 223 516Q205 524 187 536T142 573T100 639T84 733Q84 861 168 935T383 1010Q458 1010 522 992T670 934L627 813Q509
901 373 901Q307 901 258 864T209 762Q209 737 213 719T231 684T259 655T306 627T366 600T449 567Q490 551 513 541T569 515T619 484T658 448T690 402T707 346T715 274Q715 134 622 61T385 -12Q291 -12 221 12T72 92Z" />
<glyph unicode="t" glyph-name="t" horiz-adv-x="659" d="M20 834V938H201V1186L336 1352V938H553V834H336V246Q336 218 336 203T342 163T356 127T383 104T428 94Q473 94 530 117T629 170V43Q584 15 519 -4T401 -23Q296 -23 249 43T201 221V834H20Z" />
<glyph unicode="u" glyph-name="u" horiz-adv-x="950" d="M123 291V981H258V301Q258 270 259 252T264 205T277 159T303 124T345 98T408 90Q454 90 510 124T608 202T678 284T707 334V981H838V47L713 -18V201Q713 213 705 213Q695 213 684 199Q641 132 601 89T500
16T367 -14Q296 -14 247 9T172 75T134 171T123 291Z" />
<glyph unicode="v" glyph-name="v" horiz-adv-x="847" d="M27 981H172L385 287Q385 286 394 253T411 192T424 160H434Q440 166 447 184T458 220T469 261T477 291L688 981H817L506 0H342L27 981Z" />
<glyph unicode="w" glyph-name="w" horiz-adv-x="1304" d="M442 0H299L-4 981H133L315 365Q336 295 344 262Q356 206 365 186Q373 182 375 182Q379 182 387 186Q391 199 400 237T418 321T428 371L586 981H725L887 375Q894 351 906 294T924 215Q933 178 950 178Q959
178 964 189T977 236Q985 290 1008 367L1190 981H1311L1012 0H870L694 653Q679 718 668 786Q664 815 657 823H647Q640 817 638 812T631 780L606 651L442 0Z" />
<glyph unicode="x" glyph-name="x" horiz-adv-x="962" d="M559 500L895 0H735L522 330Q516 339 505 357T488 385T477 395T465 383T442 347T426 319L221 0H74L403 494L70 981H231L459 629Q477 598 485 598Q489 598 496 608T512 636T526 659L733 981H885L559 500Z" />
<glyph unicode="y" glyph-name="y" horiz-adv-x="847" d="M31 -297V-139H74Q85 -158 92 -168T120 -187T172 -197Q204 -197 230 -183T274 -150T306 -100T330 -44T349 15T367 66L20 981H166L362 440L403 326Q406 318 410 305T417 284T423 268T429 256T436 252Q443
252 448 268T469 337T502 440L684 981H813L463 -31Q445 -82 429 -119T387 -198T330 -266T257 -310T162 -328Q104 -328 31 -297Z" />
<glyph unicode="z" glyph-name="z" horiz-adv-x="847" d="M92 862V981H770V864L344 266Q279 176 256 150T233 117Q233 109 254 109H770V0H78V106L471 668Q536 762 612 848V862H92Z" />
<glyph unicode="{" glyph-name="braceleft" horiz-adv-x="620" d="M586 1399V1294H506Q447 1294 421 1239T395 1100V979Q395 906 376 846T327 752T275 700T233 676V672Q252 665 275 648T327 598T375 504T395 367V262Q395 178 421 123T506 68H586V-37H481Q382 -37
321 33T260 225V334Q260 458 218 539T102 621V729Q176 729 218 810T260 1012V1137Q260 1259 321 1329T481 1399H586Z" />
<glyph unicode="|" glyph-name="bar" horiz-adv-x="393" d="M129 -512V1536H264V-512H129Z" />
<glyph unicode="}" glyph-name="braceright" horiz-adv-x="620" d="M35 1294V1399H139Q238 1399 299 1329T360 1137V1012Q360 891 402 810T518 729V621Q444 621 402 540T360 334V225Q360 103 299 33T139 -37H35V68H115Q225 68 225 262V367Q225 443 244 503T293
597T345 648T387 672V676Q369 682 346 700T293 752T245 846T225 979V1100Q225 1294 115 1294H35Z" />
<glyph unicode="~" glyph-name="asciitilde" horiz-adv-x="1167" d="M184 379L102 461Q155 549 215 597T360 645Q406 645 455 633T527 610T602 575Q647 552 672 540T736 517T807 506Q899 506 983 641L1065 555Q1013 467 953 420T807 375Q768 375 724 386T659 406T587
438Q578 442 573 444Q508 479 461 496T360 514Q269 514 184 379Z" />
</font>
</defs>
</svg>
